<svg width="48" height="53" viewBox="0 0 48 53" fill="none" xmlns="http://www.w3.org/2000/svg">
<path d="M1.9802 39.9298C0.847528 40.7381 0.575936 42.3208 1.48811 43.3717C3.78203 46.0142 6.58245 48.1828 9.73273 49.7441C13.6375 51.6792 17.9592 52.6215 22.3151 52.4875C26.671 52.3534 30.9266 51.1472 34.7049 48.9756C38.4833 46.8041 41.6678 43.7342 43.9764 40.0379C46.2849 36.3417 47.6463 32.1331 47.9398 27.7851C48.2334 23.437 47.4501 19.0837 45.6593 15.1106C43.8685 11.1376 41.1256 7.66756 37.6734 5.00783C34.8882 2.862 31.7108 1.29705 28.3297 0.395197C26.9852 0.0365735 25.6821 0.975077 25.4527 2.34755C25.2234 3.72002 26.1563 5.00414 27.4925 5.39269C30.0583 6.13881 32.4696 7.35976 34.598 8.99958C37.3937 11.1535 39.6151 13.9638 41.0653 17.1813C42.5156 20.3988 43.1499 23.9244 42.9122 27.4456C42.6744 30.9669 41.572 34.3752 39.7024 37.3686C37.8328 40.362 35.2539 42.8481 32.194 44.6067C29.1341 46.3654 25.6877 47.3422 22.1601 47.4508C18.6325 47.5593 15.1326 46.7962 11.9703 45.229C9.56292 44.036 7.40779 42.4049 5.61154 40.4266C4.67613 39.3964 3.11286 39.1215 1.9802 39.9298Z" fill="#FF5900"/>
</svg>
