<svg width="29" height="30" viewBox="0 0 29 30" fill="none" xmlns="http://www.w3.org/2000/svg">
<g clip-path="url(#clip0_1322_272)">
<path fill-rule="evenodd" clip-rule="evenodd" d="M13.25 7.17458V10.0007H12C10.1153 10.0002 8.2808 10.6082 6.76953 11.7343C5.25825 12.8604 4.15099 14.4444 3.6125 16.2505H2V21.2502H3.6125C4.15099 23.0563 5.25825 24.6403 6.76953 25.7664C8.2808 26.8925 10.1153 27.5005 12 27.5H17C18.8847 27.5005 20.7192 26.8925 22.2305 25.7664C23.7417 24.6403 24.849 23.0563 25.3875 21.2502H27V16.2505H25.3875C24.849 14.4444 23.7417 12.8604 22.2305 11.7343C20.7192 10.6082 18.8847 10.0002 17 10.0007H15.75V7.18206C16.2293 6.90818 16.6047 6.48376 16.8181 5.97464C17.0314 5.46553 17.0707 4.90022 16.9298 4.36651C16.7889 3.83279 16.4757 3.36053 16.0389 3.02302C15.6021 2.68552 15.0661 2.50167 14.514 2.50001C13.962 2.49836 13.4249 2.67899 12.9861 3.01387C12.5472 3.34875 12.2312 3.81911 12.0872 4.35197C11.9431 4.88483 11.9789 5.45037 12.1892 5.96076C12.3995 6.47114 12.7724 6.89784 13.25 7.17458ZM5.75 18.7504C5.75 17.0928 6.40848 15.5032 7.58058 14.3311C8.75268 13.1591 10.3424 12.5006 12 12.5006H17C18.6576 12.5006 20.2473 13.1591 21.4194 14.3311C22.5915 15.5032 23.25 17.0928 23.25 18.7504V18.7666C23.2457 20.4213 22.5853 22.0068 21.4137 23.1753C20.242 24.3439 18.6548 25.0001 17 25.0001H12C10.3424 25.0001 8.75268 24.3416 7.58058 23.1696C6.40848 21.9975 5.75 20.4079 5.75 18.7504ZM17 17.5004V20.0003H19.5V17.5004H17ZM9.5 17.5004V20.0003H12V17.5004H9.5Z" fill="#FF5900"/>
</g>
<defs>
<clipPath id="clip0_1322_272">
<rect width="25" height="25" fill="white" transform="translate(2 2.5)"/>
</clipPath>
</defs>
</svg>
