<svg width="200" height="201" viewBox="0 0 200 201" fill="none" xmlns="http://www.w3.org/2000/svg">
<path fill-rule="evenodd" clip-rule="evenodd" d="M100 200.08C155.228 200.08 200 155.309 200 100.08C200 44.8516 155.228 0.0800781 100 0.0800781C44.7715 0.0800781 0 44.8516 0 100.08C0 155.309 44.7715 200.08 100 200.08ZM162.21 106.173C162.219 106.116 162.227 106.058 162.227 106.009L106.164 162.629C106.262 162.612 106.36 162.604 106.459 162.596C106.557 162.588 106.655 162.58 106.753 162.563C135.702 159.551 159.476 136.235 162.194 106.337C162.194 106.287 162.202 106.23 162.21 106.173ZM127.384 44.2152C125.812 43.462 124.208 42.7416 122.57 42.1194C119.394 40.875 116.054 39.8926 112.648 39.2049C108.555 38.3535 104.298 37.895 99.9423 37.895C97.8465 37.895 95.7834 37.9933 93.7204 38.1898C79.3117 39.5979 66.3766 45.918 56.5197 55.4147L56.487 55.4474L54.5222 57.4123L54.4894 57.445C45.091 67.3673 38.9019 80.4007 37.6247 94.8421C37.461 96.6759 37.3955 98.5425 37.3955 100.409C37.3955 105.092 37.9195 109.644 38.8691 113.999C39.5896 117.307 40.6047 120.549 41.8491 123.627C42.5368 125.33 43.29 127 44.1086 128.637C45.5495 131.453 47.1869 134.171 49.0207 136.726L59.3032 126.345L125.485 59.5081L135.768 49.1272C133.115 47.2934 130.332 45.6561 127.384 44.2152ZM53.2123 112.198L52.9176 110.921V110.888C52.1644 107.482 51.7714 103.946 51.7714 100.409C51.7714 88.0307 56.3888 76.3728 64.8375 67.4328L64.8702 67.4001L66.5731 65.6645L66.6058 65.6318C75.6113 56.9538 87.4329 52.2055 99.9751 52.2055C103.283 52.2055 106.59 52.5329 109.799 53.1879C110.019 53.2319 110.24 53.2826 110.463 53.3339C110.738 53.397 111.017 53.4612 111.306 53.5154L53.2123 112.198ZM73.8095 157.258C75.3158 157.913 76.8222 158.568 78.3613 159.125L158.395 78.2396C157.773 76.635 157.118 75.0304 156.365 73.4913C154.957 70.5113 153.286 67.6296 151.42 64.9443L64.9678 152.281C67.784 154.18 70.7312 155.85 73.8095 157.258Z" fill="#C4FF61"/>
</svg>
